HIERARCHY
ROOT Hips
{
	OFFSET 0.00000 0.00000 0.00000
	CHANNELS 6 Xposition Yposition Zposition Zrotation Yrotation Xrotation 
	JOINT LHipJoint
	{
		OFFSET 0 0 0
		CHANNELS 3 Zrotation Yrotation Xrotation
		JOINT LeftUpLeg
		{
			OFFSET 1.54859 -1.61379 0.86856
			CHANNELS 3 Zrotation Yrotation Xrotation
			JOINT LeftLeg
			{
				OFFSET 2.25087 -6.18423 0.00000
				CHANNELS 3 Zrotation Yrotation Xrotation
				JOINT LeftFoot
				{
					OFFSET 2.40328 -6.60297 0.00000
					CHANNELS 3 Zrotation Yrotation Xrotation
					JOINT LeftToeBase
					{
						OFFSET 0.17435 -0.47901 2.02453
						CHANNELS 3 Zrotation Yrotation Xrotation
						End Site
						{
							OFFSET 0.00000 -0.00000 1.04844
						}
					}
				}
			}
		}
	}
	JOINT RHipJoint
	{
		OFFSET 0 0 0
		CHANNELS 3 Zrotation Yrotation Xrotation
		JOINT RightUpLeg
		{
			OFFSET -1.54669 -1.61379 0.86856
			CHANNELS 3 Zrotation Yrotation Xrotation
			JOINT RightLeg
			{
				OFFSET -2.28132 -6.26789 0.00000
				CHANNELS 3 Zrotation Yrotation Xrotation
				JOINT RightFoot
				{
					OFFSET -2.51636 -6.91365 0.00000
					CHANNELS 3 Zrotation Yrotation Xrotation
					JOINT RightToeBase
					{
						OFFSET -0.15124 -0.41552 2.21090
						CHANNELS 3 Zrotation Yrotation Xrotation
						End Site
						{
							OFFSET -0.00000 -0.00000 1.13399
						}
					}
				}
			}
		}
	}
	JOINT LowerBack
	{
		OFFSET 0 0 0
		CHANNELS 3 Zrotation Yrotation Xrotation
		JOINT Spine
		{
			OFFSET -0.04287 2.26161 -0.25690
			CHANNELS 3 Zrotation Yrotation Xrotation
			JOINT Spine1
			{
				OFFSET 0.02248 2.28395 -0.10140
				CHANNELS 3 Zrotation Yrotation Xrotation
				JOINT Neck
				{
					OFFSET 0 0 0
					CHANNELS 3 Zrotation Yrotation Xrotation
					JOINT Neck1
					{
						OFFSET -0.11644 1.38496 0.11345
						CHANNELS 3 Zrotation Yrotation Xrotation
						JOINT Head
						{
							OFFSET 0.29383 1.36600 0.06642
							CHANNELS 3 Zrotation Yrotation Xrotation
							End Site
							{
								OFFSET 0.11075 1.41395 -0.00294
							}
						}
					}
				}
				JOINT LeftShoulder
				{
					OFFSET 0 0 0
					CHANNELS 3 Zrotation Yrotation Xrotation
					JOINT LeftArm
					{
						OFFSET 3.51628 0.59542 -0.30346
						CHANNELS 3 Zrotation Yrotation Xrotation
						JOINT LeftForeArm
						{
							OFFSET 4.76405 -0.00000 0.00000
							CHANNELS 3 Zrotation Yrotation Xrotation
							JOINT LeftHand
							{
								OFFSET 3.13759 -0.00000 -0.00000
								CHANNELS 3 Zrotation Yrotation Xrotation
								JOINT LeftFingerBase
								{
									OFFSET 0 0 0
									CHANNELS 3 Zrotation Yrotation Xrotation
									JOINT LeftHandIndex1
									{
										OFFSET 0.73226 -0.00000 -0.00000
										CHANNELS 3 Zrotation Yrotation Xrotation
										End Site
										{
											OFFSET 0.59037 -0.00000 -0.00000
										}
									}
								}
								JOINT LThumb
								{
									OFFSET 0 0 0
									CHANNELS 3 Zrotation Yrotation Xrotation
									End Site
									{
										OFFSET 0.59938 -0.00000 0.59938
									}
								}
							}
						}
					}
				}
				JOINT RightShoulder
				{
					OFFSET 0 0 0
					CHANNELS 3 Zrotation Yrotation Xrotation
					JOINT RightArm
					{
						OFFSET -3.30990 0.84213 -0.36430
						CHANNELS 3 Zrotation Yrotation Xrotation
						JOINT RightForeArm
						{
							OFFSET -5.10161 -0.00000 -0.00000
							CHANNELS 3 Zrotation Yrotation Xrotation
							JOINT RightHand
							{
								OFFSET -3.23267 -0.00000 -0.00000
								CHANNELS 3 Zrotation Yrotation Xrotation
								JOINT RightFingerBase
								{
									OFFSET 0 0 0
									CHANNELS 3 Zrotation Yrotation Xrotation
									JOINT RightHandIndex1
									{
										OFFSET -0.70200 -0.00000 -0.00000
										CHANNELS 3 Zrotation Yrotation Xrotation
										End Site
										{
											OFFSET -0.56597 -0.00000 -0.00000
										}
									}
								}
								JOINT RThumb
								{
									OFFSET 0 0 0
									CHANNELS 3 Zrotation Yrotation Xrotation
									End Site
									{
										OFFSET -0.57461 -0.00000 0.57461
									}
								}
							}
						}
					}
				}
			}
		}
	}
}
MOTION
Frames: 10
Frame Time: 0.04
0.00 0.00 0.00 0 0 0 0 0 0 -21 0 0 0 0 0 0 0 0 0 0 0 0 0 0 21 0 0 0 0 0 0 0 0 0 0 0 0 0 0 0 0 0 0 0 0 0 0 -16 0 0 21 0 0 11 0 0 0 -8 0 0 0 0 0 0 0 0 0 0 0 0 0 0 0 0 0 0 0 0 8 0 0 0 0 0 0 0 0 0 0 0 0 0 0 0 0 0
0.00 0.00 0.00 0.0942 70.9822 6.9300 0.0000 0.0000 0.0000 -17.6385 -14.2241 -3.8073 2.7714 10.3154 30.0044 2.5480 -1.2213 -29.9005 0.0528 1.4830 4.0787 0.0000 0.0000 0.0000 22.3905 7.0803 -12.7202 -4.7074 -13.0465 39.5427 -1.7726 -11.7070 -31.6955 -1.3191 7.2743 -20.5305 -2.7611 2.2559 -4.8414 0.0009 3.2640 3.9484 1.8885 1.4873 6.6827 -11.7691 -7.0546 -10.5492 15.5001 -9.9654 13.1045 6.0240 -4.2083 7.1376 0.0000 0.0000 0.0000 -96.3050 4.2657 45.1175 31.8976 -42.4654 -12.6716 -0.0000 0.0000 -8.7208 21.3384 21.0779 7.9974 -7.1250 0.0000 -0.0000 -7.5065 52.3056 -1.3562 0.0000 0.0000 0.0000 89.8614 -8.2816 54.8403 -99.6188 59.6475 -68.3202 0.0000 -0.0000 -43.2090 -26.1672 30.9266 -14.1723 7.1250 -0.0000 -0.0000 2.9666 3.7043 3.1562
0.00 0.00 0.00 12.3926 69.5396 21.2312 0.0000 0.0000 0.0000 -22.2683 -17.7627 -0.4992 2.4242 9.6988 28.0066 3.3460 -10.8847 -33.0788 3.8203 11.9174 35.4405 0.0000 0.0000 0.0000 16.7322 0.9864 -25.7743 -8.7672 -16.6555 55.2814 -2.4995 -6.2406 -32.5719 -2.1137 9.0990 -26.1056 -8.2178 2.3641 -2.4125 -2.9736 3.8567 4.4504 1.7550 1.6599 5.6980 -12.1609 -8.2553 -10.2575 20.5016 -10.1988 -1.1965 7.6646 -4.4580 3.1683 0.0000 -0.0000 0.0000 -91.8112 -1.1203 49.8436 32.6629 -43.0693 -13.1913 -0.0000 0.0000 -9.5269 21.0440 21.6608 8.0828 -7.1250 0.0000 -0.0000 -8.0020 52.8560 -1.5548 0.0000 -0.0000 0.0000 92.6045 -9.4006 52.5572 -100.4020 59.5872 -68.9959 0.0000 -0.0000 -47.1674 -38.6729 29.2996 -21.3895 7.1250 -0.0000 -0.0000 -4.4249 5.6327 -4.8518
0.00 0.00 0.00 19.4977 68.6369 27.5349 0.0000 0.0000 0.0000 -24.4077 -16.2838 3.1264 2.0539 8.9774 25.7247 3.1519 -15.7535 -32.3524 4.3970 12.6707 38.1479 0.0000 0.0000 0.0000 12.5262 -2.0399 -34.9366 -13.3183 -18.8941 70.1113 -1.7020 -7.1574 -28.1104 -3.1973 11.0078 -32.3061 -11.6690 2.3498 1.6233 -4.4313 3.6817 5.5718 1.9346 1.5363 4.5690 -12.3336 -8.6310 -8.3145 23.2369 -9.5482 -9.0981 8.8437 -4.4114 0.7076 0.0000 -0.0000 0.0000 -92.4397 -9.2977 55.6203 32.1785 -42.6890 -12.8617 -0.0000 0.0000 -9.8351 20.9602 22.1303 8.2115 -7.1250 0.0000 -0.0000 -8.2547 53.3249 -1.6993 0.0000 -0.0000 0.0000 94.5859 -12.0476 44.9365 -116.0103 57.2826 -82.3201 0.0000 -0.0000 -36.2976 -48.8258 33.3950 -32.1821 7.1250 -0.0000 -0.0000 -8.6958 14.6107 -10.7142
0.00 0.00 0.00 23.3994 66.1472 30.5667 0.0000 0.0000 0.0000 -26.9230 -13.4725 8.2554 1.6694 8.1406 23.1419 0.8876 17.8170 -31.7163 7.4743 -15.7186 -50.6461 0.0000 0.0000 0.0000 2.2801 -1.3349 -46.7853 -14.7598 -19.3285 74.5120 -1.9716 3.5128 -25.6862 -0.3438 -3.7676 10.4238 -11.3079 0.8752 7.7304 -4.7754 1.1115 7.5577 1.2618 0.3366 3.5815 -10.3208 -6.1696 -6.6196 20.8268 -5.9300 -12.4387 8.1044 -2.8600 -1.3882 0.0000 -0.0000 0.0000 -97.2966 -20.8837 59.4961 29.2957 -40.2820 -10.9514 -0.0000 0.0000 -8.7873 20.7626 23.4156 8.5678 -7.1250 0.0000 -0.0000 -8.9499 54.6079 -2.1253 0.0000 -0.0000 0.0000 90.0503 -0.1901 44.9690 -131.2394 52.4832 -94.8123 0.0000 0.0000 1.0319 -42.9084 31.1640 -25.6886 7.1250 -0.0000 -0.0000 -6.2620 9.3565 -7.2367
0.00 0.00 0.00 17.3330 60.6268 25.6488 0.0000 0.0000 0.0000 -26.8435 -10.1311 15.8218 0.9086 6.0742 16.9999 2.0819 15.4752 -36.3921 5.7973 -14.2290 -44.1626 0.0000 0.0000 0.0000 -3.9783 6.1724 -54.9072 -13.3652 -18.9101 70.2560 -1.0758 12.2790 -19.1965 -4.0250 -12.1936 36.4202 -12.2200 0.8613 12.1219 -1.9582 0.2730 7.7039 4.7598 -0.1175 1.4278 -8.8394 -3.4282 -7.2165 15.0275 -2.5187 -13.5019 6.0992 -1.1093 -2.3808 -0.0000 0.0000 0.0000 -98.0791 -22.6435 53.9500 24.4228 -35.6082 -7.9514 -0.0000 -0.0000 1.4693 24.2268 24.1794 10.4430 -7.1250 0.0000 -0.0000 -5.6131 56.1051 -1.5324 -0.0000 0.0000 0.0000 80.9683 16.0795 56.6165 -117.3092 56.9853 -83.4111 0.0000 0.0000 20.5320 -37.4379 30.2068 -21.0664 7.1250 -0.0000 -0.0000 -3.5198 6.2081 -3.8868
0.00 0.00 0.00 14.5687 59.3462 23.6371 0.0000 0.0000 0.0000 -25.3362 -8.4543 18.3743 0.6598 5.1952 14.4662 2.7112 12.6020 -37.5143 4.8150 -13.1723 -40.0171 0.0000 0.0000 0.0000 -4.1917 8.1138 -56.9033 -13.0244 -18.7909 69.2012 -0.7273 12.8617 -16.5216 -4.9869 -13.3690 40.7659 -11.9898 1.0049 13.2885 -0.8103 0.3316 7.9516 5.8476 -0.1016 1.0524 -8.1742 -2.7222 -7.9024 12.9874 -1.6745 -13.9341 5.3516 -0.6459 -2.5666 0.0000 -0.0000 0.0000 -97.7128 -23.1831 48.2753 23.8838 -35.0411 -7.6397 -0.0000 -0.0000 17.4005 25.1009 22.6168 10.2124 -7.1250 0.0000 -0.0000 -4.1447 54.6369 -0.9825 0.0000 -0.0000 0.0000 79.0942 21.5854 59.4636 -101.9487 59.4536 -70.3289 0.0000 0.0000 24.3650 -39.6505 32.3388 -23.9088 7.1250 -0.0000 -0.0000 -4.1901 9.3566 -4.8275
0.00 0.00 0.00 12.6404 59.4845 21.9667 0.0000 0.0000 0.0000 -23.7288 -7.8156 20.9161 0.5757 4.8587 13.5059 3.0878 10.1386 -37.8618 3.7700 -11.8479 -35.1960 0.0000 0.0000 0.0000 -3.0307 8.0281 -57.3219 -13.0365 -18.7953 69.2387 -0.3729 13.1058 -13.3556 -5.5901 -14.0190 43.3137 -10.7457 0.9056 14.8008 0.0850 0.2122 8.4485 6.1248 -0.1357 0.7782 -7.8267 -2.4074 -8.7265 11.9159 -1.2688 -14.2392 4.9590 -0.4024 -2.5998 0.0000 -0.0000 0.0000 -96.7172 -22.8817 50.4052 26.1886 -37.3943 -9.0019 -0.0000 -0.0000 12.0555 23.6739 20.7804 8.8414 -7.1250 0.0000 -0.0000 -5.0575 52.4165 -0.9251 0.0000 -0.0000 0.0000 79.2392 26.0154 60.1127 -78.5957 59.5028 -50.1401 0.0000 0.0000 27.1329 -43.1318 35.6869 -28.6567 7.1250 -0.0000 -0.0000 -5.0464 14.4126 -6.1642
0.00 0.00 0.00 8.5534 61.7602 20.7452 0.0000 0.0000 0.0000 -18.8357 -10.3126 15.0929 2.7411 10.2636 29.8347 2.7929 6.0289 -34.1152 0.5444 -4.7269 -13.1313 0.0000 0.0000 0.0000 4.0239 6.3160 -54.9042 -13.6453 -19.0029 71.1184 -0.6572 16.8756 -17.5211 -5.3911 -13.8112 42.4863 -7.1374 1.4715 16.4717 2.2849 1.3318 8.7167 6.2553 0.5309 -0.0688 -8.9042 -3.1977 -10.2032 11.7542 -2.1196 -14.5505 5.0733 -0.7082 -2.3677 -0.0000 0.0000 0.0000 -95.4595 -19.6728 54.8459 24.4981 -35.6866 -7.9953 -0.0000 0.0000 -1.6443 20.6318 20.6248 7.5547 -7.1250 0.0000 -0.0000 -8.0617 51.7119 -1.3398 -0.0000 0.0000 0.0000 86.5930 36.1225 45.2170 -23.2395 34.3497 -7.2730 0.0000 0.0000 34.1311 -38.5781 34.1542 -24.1240 7.1250 -0.0000 -0.0000 -3.1292 10.9184 -3.6702
0.00 0.00 0.00 6.0653 61.8319 20.0482 0.0000 0.0000 0.0000 -16.6951 -12.5003 7.4673 5.8661 14.2973 44.4420 1.0692 10.1134 -25.6267 0.3871 -3.9954 -11.0637 0.0000 0.0000 0.0000 6.8740 7.8409 -53.1453 -14.0155 -19.1187 72.2517 -1.1460 19.2350 -21.9049 -5.0731 -13.4657 41.1377 -4.4976 2.7795 17.7350 2.6982 3.3751 8.8757 4.7856 1.6465 -0.8026 -8.8782 -4.2467 -11.7031 11.5393 -3.3411 -15.1719 4.9662 -1.2428 -2.2061 0.0000 -0.0000 0.0000 -93.8283 -16.8123 54.6212 21.0986 -31.9433 -6.1020 -0.0000 0.0000 -5.3453 22.2985 24.4501 9.6336 -7.1250 0.0000 -0.0000 -7.7700 55.9818 -2.1023 0.0000 -0.0000 0.0000 89.6115 43.2305 14.8521 -10.5286 17.5621 -1.6308 0.0000 0.0000 37.2061 -31.9287 29.6985 -17.1568 7.1250 -0.0000 -0.0000 -0.5360 3.9211 -0.5714
